<svg xmlns="http://www.w3.org/2000/svg" viewBox="0 0 64 64">
  <rect width="64" height="64" rx="14" fill="#F5F1E8"/>

  <path d="M32 12
           C24 24 20 30 20 38
           C20 46 26 52 32 52
           C38 52 44 46 44 38
           C44 30 40 24 32 12Z"
        fill="none"
        stroke="#3A4A6B"
        stroke-width="3"
        stroke-linecap="round"/>

  <path d="M28 34
           C26 38 27 42 30 44"
        fill="none"
        stroke="#3A4A6B"
        stroke-width="3"
        stroke-linecap="round"/>

  <path d="M18 18
           L20 22
           L24 24
           L20 26
           L18 30
           L16 26
           L12 24
           L16 22Z"
        fill="#3A4A6B"/>

  <path d="M44 14
           L46 20
           L52 22
           L46 24
           L44 30
           L42 24
           L36 22
           L42 20Z"
        fill="#3A4A6B"/>
</svg>